<svg xmlns="http://www.w3.org/2000/svg" xmlns:xlink="http://www.w3.org/1999/xlink" version="1.1" x="0px" y="0px" viewBox="0 0 100 100" enable-background="new 0 0 100 100" xml:space="preserve">
	<polygon fill="white" points="2,84.219 2,14.781 0,14.781 0,86.219 99,86.219 99,84.219 " />
	<path fill="white" d="M16.281,69.84c2.521,0,4.573-2.051,4.573-4.572c0-2.522-2.052-4.575-4.573-4.575c-2.521,0-4.572,2.053-4.572,4.575  C11.708,67.789,13.76,69.84,16.281,69.84z M16.281,62.692c1.419,0,2.573,1.155,2.573,2.575c0,1.418-1.154,2.572-2.573,2.572  c-1.418,0-2.572-1.154-2.572-2.572C13.708,63.848,14.862,62.692,16.281,62.692z" />
	<path fill="white" d="M19.854,56.493c2.521,0,4.573-2.051,4.573-4.572s-2.051-4.573-4.573-4.573s-4.573,2.052-4.573,4.573  S17.333,56.493,19.854,56.493z M19.854,49.348c1.418,0,2.573,1.154,2.573,2.573c0,1.418-1.154,2.572-2.573,2.572  c-1.419,0-2.573-1.154-2.573-2.572C17.281,50.502,18.435,49.348,19.854,49.348z" />
	<path fill="white" d="M29.51,60.692c-2.521,0-4.573,2.053-4.573,4.575c0,2.521,2.052,4.572,4.573,4.572c2.521,0,4.572-2.051,4.572-4.572  C34.083,62.745,32.031,60.692,29.51,60.692z M29.51,67.84c-1.419,0-2.573-1.154-2.573-2.572c0-1.42,1.154-2.575,2.573-2.575  c1.418,0,2.572,1.155,2.572,2.575C32.083,66.686,30.929,67.84,29.51,67.84z" />
	<path fill="white" d="M28.51,51.921c0,2.521,2.051,4.572,4.572,4.572c2.521,0,4.573-2.051,4.573-4.572s-2.052-4.573-4.573-4.573  C30.562,47.348,28.51,49.399,28.51,51.921z M33.083,49.348c1.419,0,2.573,1.154,2.573,2.573c0,1.418-1.154,2.572-2.573,2.572  c-1.418,0-2.572-1.154-2.572-2.572C30.51,50.502,31.664,49.348,33.083,49.348z" />
	<path fill="white" d="M43.36,66.267c2.521,0,4.573-2.052,4.573-4.574c0-2.521-2.051-4.571-4.573-4.571c-2.521,0-4.572,2.051-4.572,4.571  C38.788,64.215,40.839,66.267,43.36,66.267z M43.36,59.121c1.418,0,2.573,1.153,2.573,2.571c0,1.419-1.154,2.574-2.573,2.574  s-2.572-1.155-2.572-2.574C40.788,60.274,41.942,59.121,43.36,59.121z" />
	<path fill="white" d="M25.937,43.577c2.521,0,4.573-2.051,4.573-4.573c0-2.521-2.051-4.572-4.573-4.572s-4.573,2.051-4.573,4.572  C21.364,41.525,23.416,43.577,25.937,43.577z M25.937,36.432c1.418,0,2.573,1.154,2.573,2.572s-1.154,2.573-2.573,2.573  c-1.419,0-2.573-1.154-2.573-2.573S24.518,36.432,25.937,36.432z" />
	<path fill="white" d="M43.36,47.149c2.521,0,4.573-2.051,4.573-4.573s-2.051-4.573-4.573-4.573c-2.521,0-4.572,2.051-4.572,4.573  S40.839,47.149,43.36,47.149z M43.36,40.004c1.418,0,2.573,1.154,2.573,2.573s-1.154,2.573-2.573,2.573s-2.572-1.154-2.572-2.573  S41.942,40.004,43.36,40.004z" />
	<path fill="white" d="M78.4,61.812c2.521,0,4.572-2.051,4.572-4.572s-2.051-4.573-4.572-4.573c-2.522,0-4.575,2.052-4.575,4.573  S75.878,61.812,78.4,61.812z M78.4,54.666c1.418,0,2.572,1.154,2.572,2.573c0,1.418-1.154,2.572-2.572,2.572  c-1.42,0-2.575-1.154-2.575-2.572C75.825,55.82,76.98,54.666,78.4,54.666z" />
</svg>
